<svg width="800" height="24" viewBox="0 0 800 24" xmlns="http://www.w3.org/2000/svg">
  <line x1="0" y1="12" x2="60" y2="12" stroke="#6BCB77" stroke-width="1.2"/>
  <polygon points="72,4 80,20 64,20" fill="none" stroke="#6BCB77" stroke-width="1.3"/>
  <circle cx="88" cy="12" r="2.2" fill="#6BCB77"/>
  <polygon points="100,4 108,20 92,20" fill="none" stroke="#6BCB77" stroke-width="1.3"/>
  <circle cx="116" cy="12" r="2.2" fill="#6BCB77"/>
  <polygon points="128,4 136,20 120,20" fill="none" stroke="#6BCB77" stroke-width="1.3"/>
  <circle cx="144" cy="12" r="2.2" fill="#6BCB77"/>
  <polygon points="156,4 164,20 148,20" fill="none" stroke="#6BCB77" stroke-width="1.3"/>
  <circle cx="172" cy="12" r="2.2" fill="#6BCB77"/>
  <polygon points="184,4 192,20 176,20" fill="none" stroke="#6BCB77" stroke-width="1.3"/>
  <circle cx="200" cy="12" r="2.2" fill="#6BCB77"/>
  <polygon points="212,4 220,20 204,20" fill="none" stroke="#6BCB77" stroke-width="1.3"/>
  <circle cx="228" cy="12" r="2.2" fill="#6BCB77"/>
  <polygon points="240,4 248,20 232,20" fill="none" stroke="#6BCB77" stroke-width="1.3"/>
  <circle cx="256" cy="12" r="2.2" fill="#6BCB77"/>
  <polygon points="268,4 276,20 260,20" fill="none" stroke="#6BCB77" stroke-width="1.3"/>
  <circle cx="284" cy="12" r="2.2" fill="#6BCB77"/>
  <polygon points="296,4 304,20 288,20" fill="none" stroke="#6BCB77" stroke-width="1.3"/>
  <circle cx="312" cy="12" r="2.2" fill="#6BCB77"/>
  <polygon points="324,4 332,20 316,20" fill="none" stroke="#6BCB77" stroke-width="1.3"/>
  <circle cx="340" cy="12" r="2.2" fill="#6BCB77"/>
  <polygon points="352,4 360,20 344,20" fill="none" stroke="#6BCB77" stroke-width="1.3"/>
  <circle cx="368" cy="12" r="2.2" fill="#6BCB77"/>
  <polygon points="380,4 388,20 372,20" fill="none" stroke="#6BCB77" stroke-width="1.3"/>
  <circle cx="396" cy="12" r="2.2" fill="#6BCB77"/>
  <polygon points="408,4 416,20 400,20" fill="none" stroke="#6BCB77" stroke-width="1.3"/>
  <circle cx="424" cy="12" r="2.2" fill="#6BCB77"/>
  <polygon points="436,4 444,20 428,20" fill="none" stroke="#6BCB77" stroke-width="1.3"/>
  <circle cx="452" cy="12" r="2.2" fill="#6BCB77"/>
  <polygon points="464,4 472,20 456,20" fill="none" stroke="#6BCB77" stroke-width="1.3"/>
  <circle cx="480" cy="12" r="2.2" fill="#6BCB77"/>
  <polygon points="492,4 500,20 484,20" fill="none" stroke="#6BCB77" stroke-width="1.3"/>
  <circle cx="508" cy="12" r="2.2" fill="#6BCB77"/>
  <polygon points="520,4 528,20 512,20" fill="none" stroke="#6BCB77" stroke-width="1.3"/>
  <circle cx="536" cy="12" r="2.2" fill="#6BCB77"/>
  <polygon points="548,4 556,20 540,20" fill="none" stroke="#6BCB77" stroke-width="1.3"/>
  <circle cx="564" cy="12" r="2.2" fill="#6BCB77"/>
  <polygon points="576,4 584,20 568,20" fill="none" stroke="#6BCB77" stroke-width="1.3"/>
  <circle cx="592" cy="12" r="2.2" fill="#6BCB77"/>
  <polygon points="604,4 612,20 596,20" fill="none" stroke="#6BCB77" stroke-width="1.3"/>
  <circle cx="620" cy="12" r="2.2" fill="#6BCB77"/>
  <polygon points="632,4 640,20 624,20" fill="none" stroke="#6BCB77" stroke-width="1.3"/>
  <circle cx="648" cy="12" r="2.2" fill="#6BCB77"/>
  <polygon points="660,4 668,20 652,20" fill="none" stroke="#6BCB77" stroke-width="1.3"/>
  <circle cx="676" cy="12" r="2.2" fill="#6BCB77"/>
  <polygon points="688,4 696,20 680,20" fill="none" stroke="#6BCB77" stroke-width="1.3"/>
  <circle cx="704" cy="12" r="2.2" fill="#6BCB77"/>
  <polygon points="716,4 724,20 708,20" fill="none" stroke="#6BCB77" stroke-width="1.3"/>
  <line x1="730" y1="12" x2="800" y2="12" stroke="#6BCB77" stroke-width="1.2"/>
</svg>
