<svg width="800" height="30" viewBox="0 0 800 30" xmlns="http://www.w3.org/2000/svg">
  <line x1="0" y1="15" x2="220" y2="15" stroke="#D63AF9" stroke-width="1.2"/>
  <line x1="220" y1="15" x2="580" y2="15" stroke="#D63AF9" stroke-width="1.2" stroke-dasharray="0"/>
  <ellipse cx="244" cy="12" rx="9" ry="5" fill="none" stroke="#D63AF9" stroke-width="1.3" transform="rotate(-35 244 12)"/>
  <ellipse cx="265" cy="18" rx="9" ry="5" fill="none" stroke="#D63AF9" stroke-width="1.3" transform="rotate(35 265 18)"/>
  <ellipse cx="286" cy="12" rx="9" ry="5" fill="none" stroke="#D63AF9" stroke-width="1.3" transform="rotate(-35 286 12)"/>
  <ellipse cx="307" cy="18" rx="9" ry="5" fill="none" stroke="#D63AF9" stroke-width="1.3" transform="rotate(35 307 18)"/>
  <ellipse cx="328" cy="12" rx="9" ry="5" fill="none" stroke="#D63AF9" stroke-width="1.3" transform="rotate(-35 328 12)"/>
  <ellipse cx="349" cy="18" rx="9" ry="5" fill="none" stroke="#D63AF9" stroke-width="1.3" transform="rotate(35 349 18)"/>
  <ellipse cx="370" cy="12" rx="9" ry="5" fill="none" stroke="#D63AF9" stroke-width="1.3" transform="rotate(-35 370 12)"/>
  <ellipse cx="391" cy="18" rx="9" ry="5" fill="none" stroke="#D63AF9" stroke-width="1.3" transform="rotate(35 391 18)"/>
  <ellipse cx="412" cy="12" rx="9" ry="5" fill="none" stroke="#D63AF9" stroke-width="1.3" transform="rotate(-35 412 12)"/>
  <ellipse cx="433" cy="18" rx="9" ry="5" fill="none" stroke="#D63AF9" stroke-width="1.3" transform="rotate(35 433 18)"/>
  <ellipse cx="454" cy="12" rx="9" ry="5" fill="none" stroke="#D63AF9" stroke-width="1.3" transform="rotate(-35 454 12)"/>
  <ellipse cx="475" cy="18" rx="9" ry="5" fill="none" stroke="#D63AF9" stroke-width="1.3" transform="rotate(35 475 18)"/>
  <ellipse cx="496" cy="12" rx="9" ry="5" fill="none" stroke="#D63AF9" stroke-width="1.3" transform="rotate(-35 496 12)"/>
  <ellipse cx="517" cy="18" rx="9" ry="5" fill="none" stroke="#D63AF9" stroke-width="1.3" transform="rotate(35 517 18)"/>
  <ellipse cx="538" cy="12" rx="9" ry="5" fill="none" stroke="#D63AF9" stroke-width="1.3" transform="rotate(-35 538 12)"/>
  <ellipse cx="559" cy="18" rx="9" ry="5" fill="none" stroke="#D63AF9" stroke-width="1.3" transform="rotate(35 559 18)"/>
  <line x1="575" y1="15" x2="800" y2="15" stroke="#D63AF9" stroke-width="1.2"/>
</svg>
